<?xml version="1.0" standalone="no"?>
<!DOCTYPE svg PUBLIC "-//W3C//DTD SVG 20010904//EN"
 "http://www.w3.org/TR/2001/REC-SVG-20010904/DTD/svg10.dtd">
<svg version="1.0" xmlns="http://www.w3.org/2000/svg"
 width="228.000000pt" height="221.000000pt" viewBox="0 0 228.000000 221.000000"
 preserveAspectRatio="xMidYMid meet">

<g transform="translate(0.000000,221.000000) scale(0.100000,-0.100000)"
fill="#000000" stroke="none">
<path d="M1122 2198 c-8 -8 -12 -61 -12 -174 0 -137 3 -165 16 -179 9 -9 23
-14 31 -11 8 3 17 6 19 6 2 0 4 81 4 179 0 154 -2 180 -16 185 -22 8 -28 8
-42 -6z"/>
<path d="M777 2103 c-17 -16 -1 -51 84 -180 96 -144 105 -155 129 -150 35 6
19 48 -74 191 -91 139 -115 163 -139 139z"/>
<path d="M1392 1960 c-88 -128 -101 -153 -92 -170 22 -42 45 -23 141 117 114
166 115 168 99 188 -27 32 -46 15 -148 -135z"/>
<path d="M299 1894 c-9 -11 -10 -20 -2 -32 12 -20 549 -234 577 -230 15 2 21
10 21 28 0 23 -18 32 -280 137 -154 61 -285 112 -291 112 -6 1 -17 -6 -25 -15z"/>
<path d="M1710 1789 c-151 -55 -281 -106 -289 -114 -16 -16 -9 -43 15 -52 15
-5 545 180 572 200 18 14 15 45 -6 56 -13 7 -86 -15 -292 -90z"/>
<path d="M1114 1730 c-46 -10 -87 -38 -114 -78 -36 -51 -36 -153 0 -205 39
-56 90 -80 161 -75 65 5 100 24 136 77 89 131 -31 316 -183 281z"/>
<path d="M416 1386 c-269 -76 -403 -118 -410 -129 -8 -12 -6 -21 6 -34 16 -16
42 -10 443 102 431 120 453 128 430 165 -12 20 -77 6 -469 -104z"/>
<path d="M1435 1483 c-17 -16 -18 -23 -7 -39 4 -7 189 -60 411 -120 397 -106
427 -111 438 -78 10 31 4 33 -680 213 -130 35 -149 38 -162 24z"/>
<path d="M913 1308 c-17 -18 -121 -147 -232 -286 -210 -264 -229 -297 -169
-297 22 0 58 40 252 283 124 155 226 288 226 295 0 16 -20 37 -35 37 -6 0 -25
-15 -42 -32z"/>
<path d="M1326 1313 c-4 -10 2 -29 15 -46 74 -101 804 -953 818 -955 10 -2 24
4 31 13 12 14 11 20 -1 39 -8 13 -194 235 -413 494 -406 481 -431 506 -450
455z"/>
<path d="M1116 1245 c-3 -9 -6 -126 -6 -260 0 -257 3 -272 47 -263 17 3 18 21
18 268 l0 265 -26 3 c-17 2 -29 -3 -33 -13z"/>
<path d="M544 663 c-283 -136 -304 -150 -304 -198 0 -24 38 -55 68 -55 15 0
142 56 282 124 l255 123 269 -134 c195 -97 274 -132 290 -127 40 12 57 36 54
73 l-3 36 -295 147 c-162 81 -304 147 -315 147 -11 0 -147 -61 -301 -136z"/>
<path d="M660 410 c-18 -18 -20 -33 -20 -193 0 -234 -16 -217 204 -217 120 0
176 4 184 12 8 8 12 67 12 199 0 157 -3 190 -16 203 -13 13 -44 16 -180 16
-151 0 -166 -2 -184 -20z"/>
</g>
</svg>
