<?xml version="1.0" standalone="no"?>
<!DOCTYPE svg PUBLIC "-//W3C//DTD SVG 20010904//EN"
 "http://www.w3.org/TR/2001/REC-SVG-20010904/DTD/svg10.dtd">
<svg version="1.0" xmlns="http://www.w3.org/2000/svg"
 width="612.000000pt" height="545.000000pt" viewBox="0 0 612.000000 545.000000"
 preserveAspectRatio="xMidYMid meet">

<g transform="translate(0.000000,545.000000) scale(0.100000,-0.100000)"
fill="#000000" stroke="none">
<path d="M2385 3649 c-127 -45 -227 -142 -260 -253 -54 -182 30 -398 197 -507
121 -78 59 -74 1278 -74 597 0 1097 3 1112 8 62 17 74 90 21 124 -26 17 -93
18 -1128 18 l-1100 0 -55 26 c-102 48 -163 119 -186 216 -37 156 71 303 223
305 96 0 158 -58 177 -165 4 -21 16 -47 27 -58 25 -25 74 -24 99 1 26 26 26
70 0 152 -51 167 -242 265 -405 207z"/>
<path d="M1487 3409 c-192 -47 -287 -249 -201 -429 37 -78 100 -145 161 -172
63 -28 231 -41 428 -33 88 3 167 8 177 11 23 7 40 59 28 89 -5 13 -18 29 -29
34 -12 7 -105 11 -243 11 -125 0 -240 5 -261 11 -43 12 -101 59 -122 99 -46
88 -17 187 63 223 36 15 54 18 81 11 37 -9 42 -16 88 -119 16 -36 22 -40 59
-43 56 -4 74 15 74 79 0 148 -155 265 -303 228z"/>
<path d="M2220 2690 c-183 -22 -334 -128 -423 -297 -161 -306 -28 -634 295
-727 83 -24 137 -20 224 14 132 53 189 104 240 214 83 181 -7 400 -190 462
-69 24 -188 16 -250 -16 -91 -47 -134 -132 -91 -180 30 -33 77 -26 129 19 64
56 111 62 184 25 75 -39 106 -94 99 -177 -11 -130 -116 -223 -247 -220 -70 2
-129 22 -183 64 -87 67 -127 148 -127 259 0 174 104 325 270 393 l55 22 1158
5 1159 5 19 24 c19 23 25 67 11 87 -22 33 -42 34 -1159 33 -609 -1 -1137 -5
-1173 -9z"/>
<path d="M2850 2419 c-112 -22 -180 -102 -180 -213 1 -130 90 -226 210 -226
51 0 80 27 80 74 0 37 -28 66 -63 66 -25 0 -77 53 -77 78 0 11 12 34 26 51
l26 31 703 0 c697 0 747 2 767 33 10 15 10 69 0 83 -22 33 -48 34 -749 33
-384 -1 -718 -5 -743 -10z"/>
</g>
</svg>
