<?xml version="1.0" standalone="no"?>
<!DOCTYPE svg PUBLIC "-//W3C//DTD SVG 20010904//EN"
 "http://www.w3.org/TR/2001/REC-SVG-20010904/DTD/svg10.dtd">
<svg version="1.0" xmlns="http://www.w3.org/2000/svg"
 width="500.000000pt" height="500.000000pt" viewBox="0 0 500.000000 500.000000"
 preserveAspectRatio="xMidYMid meet">

<g transform="translate(0.000000,500.000000) scale(0.100000,-0.100000)"
fill="#000000" stroke="none">
<path d="M2250 4114 c-14 -2 -56 -9 -95 -15 -165 -26 -297 -69 -470 -155 -174
-86 -289 -171 -438 -323 -162 -167 -281 -345 -356 -534 -140 -352 -146 -804
-16 -1152 129 -347 404 -676 724 -865 154 -91 377 -170 576 -205 115 -19 352
-20 470 0 371 60 672 214 935 475 179 177 315 401 390 640 53 167 71 275 78
455 12 345 -78 665 -268 955 -245 373 -587 604 -1042 701 -68 15 -142 21 -278
24 -102 2 -196 2 -210 -1z m492 -103 c193 -42 378 -119 542 -225 326 -212 574
-581 658 -984 19 -90 23 -138 23 -307 0 -220 -8 -283 -61 -467 -64 -225 -178
-423 -343 -599 -307 -327 -699 -498 -1142 -499 -260 0 -455 45 -699 163 -237
114 -459 317 -628 572 -43 64 -134 253 -161 330 -65 190 -92 424 -72 622 32
329 119 561 302 803 125 166 393 387 561 464 144 66 294 115 413 135 33 6 71
13 85 15 14 3 115 3 225 1 156 -2 221 -8 297 -24z"/>
<path d="M2399 3974 c-9 -11 -13 -51 -14 -128 0 -92 -3 -114 -17 -128 -10 -10
-18 -29 -18 -42 0 -18 -7 -25 -30 -30 -27 -5 -104 -52 -169 -104 -32 -25 -25
-58 12 -55 39 3 217 89 217 106 0 9 9 12 31 9 22 -3 37 2 56 19 l26 24 -16
-25 c-9 -13 -17 -28 -17 -32 0 -11 84 -52 173 -83 66 -24 80 -26 88 -14 5 8 9
18 9 22 0 28 -190 152 -221 144 -15 -4 -19 0 -19 19 0 13 -8 32 -18 42 -15 15
-17 30 -14 90 6 97 -5 159 -28 172 -13 7 -21 5 -31 -6z m39 -286 c22 -22 14
-48 -13 -48 -30 0 -43 24 -25 45 15 18 22 19 38 3z"/>
<path d="M2066 3824 c-22 -21 -20 -47 4 -69 19 -17 21 -17 40 0 11 10 20 26
20 36 0 18 -25 49 -40 49 -5 0 -16 -7 -24 -16z"/>
<path d="M2732 3828 c-17 -17 -15 -63 3 -78 12 -10 20 -9 40 4 30 19 32 46 7
69 -22 20 -34 21 -50 5z"/>
<path d="M3040 3760 c0 -28 4 -40 14 -40 27 0 36 64 10 74 -24 9 -24 9 -24
-34z"/>
<path d="M1660 3695 c0 -38 3 -45 20 -45 17 0 20 7 20 45 0 38 -3 45 -20 45
-17 0 -20 -7 -20 -45z"/>
<path d="M2890 3725 c-12 -14 -10 -19 12 -41 21 -22 26 -23 37 -11 9 12 7 20
-12 42 -21 25 -24 26 -37 10z"/>
<path d="M3174 3704 c-13 -19 -14 -28 -5 -37 8 -8 18 -5 37 15 26 26 26 48 -1
48 -8 0 -22 -11 -31 -26z"/>
<path d="M3015 3678 c-89 -23 -109 -150 -33 -213 28 -23 39 -27 80 -23 57 6
93 35 108 86 26 97 -56 177 -155 150z m84 -64 c26 -33 26 -53 4 -93 -35 -61
-123 -30 -123 44 0 69 78 101 119 49z"/>
<path d="M1483 3663 c-19 -7 -16 -25 12 -57 21 -24 27 -27 40 -16 21 17 19 33
-8 58 -25 23 -25 23 -44 15z"/>
<path d="M1838 3652 c-26 -30 -30 -43 -17 -58 10 -13 16 -11 41 12 33 33 34
40 9 53 -14 8 -22 6 -33 -7z"/>
<path d="M1605 3602 c-101 -65 -119 -180 -41 -258 97 -97 278 -19 278 120 0
85 -63 146 -155 153 -39 3 -59 -1 -82 -15z m140 -64 c25 -22 28 -35 23 -106
-4 -39 -39 -73 -83 -79 -35 -4 -45 -1 -78 29 -47 41 -55 81 -27 126 34 56 117
71 165 30z"/>
<path d="M2822 3558 c2 -19 10 -24 41 -26 35 -3 38 -1 35 20 -2 19 -10 24 -41
26 -35 3 -38 1 -35 -20z"/>
<path d="M3214 3565 c-10 -24 9 -37 47 -33 26 2 34 8 34 23 0 16 -8 21 -38 23
-27 2 -39 -1 -43 -13z"/>
<path d="M3376 3525 c-20 -21 -31 -137 -18 -204 9 -51 8 -57 -9 -71 -11 -9
-22 -32 -26 -53 -3 -20 -9 -34 -14 -31 -17 10 -174 -89 -192 -122 -11 -19 0
-34 23 -34 25 0 186 75 197 92 9 14 113 20 113 6 0 -13 177 -98 204 -98 32 0
40 26 15 51 -34 34 -156 109 -177 109 -15 0 -22 9 -27 31 -4 19 -18 37 -36 48
-24 14 -27 20 -15 24 13 5 16 25 16 109 0 57 -3 113 -6 125 -8 28 -29 36 -48
18z m48 -332 c8 -21 -17 -48 -38 -40 -9 4 -16 18 -16 32 0 20 5 25 24 25 13 0
27 -8 30 -17z"/>
<path d="M1397 3474 c-4 -4 -7 -16 -7 -26 0 -16 6 -19 43 -16 34 2 42 7 42 23
0 16 -8 21 -35 23 -20 2 -39 0 -43 -4z"/>
<path d="M1880 3455 c0 -22 4 -25 39 -25 26 0 41 5 45 16 10 25 -2 34 -45 34
-35 0 -39 -3 -39 -25z"/>
<path d="M2901 3431 c-25 -19 -24 -51 2 -51 19 0 60 46 52 59 -9 16 -27 13
-54 -8z"/>
<path d="M3163 3434 c-3 -9 3 -24 15 -36 19 -20 52 -20 52 0 0 12 -39 52 -51
52 -5 0 -12 -7 -16 -16z"/>
<path d="M3040 3360 c0 -34 3 -41 18 -38 12 2 17 13 17 38 0 25 -5 36 -17 38
-15 3 -18 -4 -18 -38z"/>
<path d="M2264 3370 c-15 -5 -20 -19 -24 -61 l-5 -54 -105 -5 c-116 -6 -136
-13 -177 -67 l-28 -36 -3 -750 -2 -749 24 -53 c19 -42 34 -59 72 -81 l49 -29
366 0 366 0 48 30 c30 19 56 45 69 70 21 39 21 51 23 770 3 747 1 786 -36 832
-41 50 -80 63 -183 63 l-98 0 0 48 c0 26 -4 53 -9 60 -6 10 -49 14 -168 16
-88 1 -168 -1 -179 -4z m273 -73 c0 -1 3 -11 5 -22 3 -19 -3 -20 -114 -23
l-118 -3 0 32 0 32 113 -8 c61 -4 113 -8 114 -8z m6 -117 l259 0 29 -31 29
-31 0 -739 c0 -536 -3 -745 -12 -763 -6 -14 -30 -34 -52 -45 -38 -18 -67 -19
-366 -20 -306 0 -327 1 -367 20 -76 37 -73 4 -73 817 0 657 1 720 17 742 35
51 65 60 183 55 52 -3 211 -5 353 -5z"/>
<path d="M2786 2862 c-11 -17 -15 -112 -4 -106 4 3 -2 -12 -13 -33 l-22 -38
27 28 c25 25 27 33 24 95 -2 41 -6 62 -12 54z"/>
<path d="M2762 2592 c12 -18 13 -33 7 -70 -5 -26 -8 -60 -7 -77 1 -17 -5 -45
-14 -62 -13 -27 -14 -33 -2 -37 8 -3 23 4 34 16 17 19 20 35 20 113 0 86 -1
93 -27 116 -26 23 -26 23 -11 1z"/>
<path d="M2763 2227 c3 -19 -3 -35 -18 -51 -13 -14 -25 -23 -28 -20 -17 17
-71 -124 -55 -143 8 -10 6 -13 -8 -13 -15 0 -16 -2 -5 -9 11 -7 4 -11 -25 -14
-21 -2 0 -4 48 -5 83 -2 88 -1 107 24 18 23 21 41 21 118 0 77 -4 95 -21 116
l-21 25 5 -28z"/>
<path d="M2530 1880 c-36 -4 -55 -7 -42 -8 12 -1 22 -8 22 -16 0 -15 -14 -22
-64 -30 -16 -3 -37 -14 -48 -26 -10 -11 -31 -20 -47 -20 -16 0 -34 -7 -41 -15
-7 -8 -18 -15 -25 -15 -18 0 -85 -64 -85 -81 0 -18 -57 -42 -63 -26 -2 6 -11
8 -23 3 -47 -18 28 -25 317 -27 317 -2 337 0 359 41 5 10 10 54 10 98 0 70 -3
82 -25 106 -22 24 -29 26 -102 24 -43 -1 -107 -4 -143 -8z"/>
<path d="M1251 3346 c-7 -8 -11 -27 -9 -43 3 -24 8 -28 33 -28 25 0 30 4 33
28 4 30 -12 57 -33 57 -7 0 -18 -6 -24 -14z"/>
<path d="M1822 3331 c-21 -13 -10 -43 20 -61 22 -12 30 -12 40 -2 10 10 6 18
-17 42 -20 20 -34 27 -43 21z"/>
<path d="M1490 3300 c-20 -29 -20 -50 1 -50 18 0 61 51 55 65 -9 24 -33 17
-56 -15z"/>
<path d="M1660 3225 c0 -42 2 -46 23 -43 19 3 22 9 22 43 0 34 -3 40 -22 43
-21 3 -23 -1 -23 -43z"/>
<path d="M3047 3233 c-13 -12 -7 -41 10 -47 21 -8 48 17 40 38 -6 16 -38 22
-50 9z"/>
<path d="M1214 3152 c-28 -13 -58 -42 -93 -88 -43 -57 -51 -75 -51 -111 l0
-43 -40 0 c-38 0 -40 -2 -40 -30 l0 -30 283 0 c155 0 339 3 410 7 125 6 127 7
127 30 0 22 -4 23 -60 23 -47 0 -60 3 -60 15 0 25 -35 88 -64 114 -19 18 -41
26 -81 29 -43 3 -57 9 -70 28 -40 62 -183 92 -261 56z m195 -70 c17 -13 25
-28 24 -45 -1 -24 0 -24 60 -20 58 4 64 3 100 -27 24 -20 37 -40 37 -56 l0
-24 -245 0 -245 0 -12 24 c-14 32 -5 54 27 66 14 5 25 16 25 24 0 69 160 110
229 58z"/>
<path d="M1741 3071 c-9 -15 -7 -23 5 -36 15 -15 18 -15 33 -1 12 12 13 21 5
33 -16 25 -31 27 -43 4z"/>
<path d="M3367 3053 c-4 -21 -7 -95 -7 -165 l0 -128 -165 0 -165 0 0 -24 c0
-19 6 -24 38 -30 49 -8 672 -8 740 0 46 6 52 9 52 30 l0 24 -215 0 -215 0 -1
93 c-1 50 -4 124 -8 162 -5 61 -9 70 -27 73 -18 3 -22 -4 -27 -35z"/>
<path d="M3101 2892 l-20 -29 20 -22 c16 -17 24 -20 35 -10 18 15 18 63 0 78
-11 9 -18 6 -35 -17z"/>
<path d="M3682 2908 c-16 -16 -15 -50 2 -74 15 -19 15 -19 37 2 19 20 20 24 8
50 -16 32 -30 39 -47 22z"/>
<path d="M996 2703 c-15 -54 -50 -379 -42 -398 5 -14 17 -17 66 -13 l60 4 0
-63 0 -63 -54 0 c-43 0 -55 -4 -58 -17 -11 -44 -16 -43 433 -43 l429 0 0 30 0
30 -60 0 -60 0 0 60 0 59 63 3 62 3 -3 85 c-3 93 -28 316 -37 331 -4 5 -166 9
-400 9 -366 0 -394 -1 -399 -17z m112 -70 c-3 -36 -5 -38 -40 -41 -40 -3 -41
-2 -32 47 6 27 10 31 41 31 33 0 34 -1 31 -37z m122 20 c-1 -50 -11 -63 -52
-63 -37 0 -40 2 -34 23 3 12 6 30 6 40 0 13 9 17 40 17 31 0 40 -4 40 -17z
m150 -23 l0 -40 -40 0 c-39 0 -40 1 -40 33 0 42 5 47 47 47 32 0 33 -1 33 -40z
m118 -2 l3 -38 -45 0 c-45 0 -46 0 -46 33 0 43 6 49 50 45 33 -3 35 -5 38 -40z
m155 10 c6 -44 2 -48 -41 -48 l-38 0 4 40 c4 38 6 40 37 40 29 0 33 -3 38 -32z
m101 20 c3 -7 7 -25 10 -40 6 -27 5 -28 -34 -28 l-40 0 0 40 c0 38 2 40 30 40
17 0 32 -6 34 -12z m-654 -148 l0 -40 -40 0 c-39 0 -40 1 -40 33 0 42 5 47 47
47 32 0 33 -1 33 -40z m120 0 l0 -40 -40 0 -40 0 0 40 0 40 40 0 40 0 0 -40z
m160 0 l0 -40 -45 0 c-48 0 -52 7 -39 58 5 18 13 22 45 22 39 0 39 0 39 -40z
m120 0 l0 -40 -45 0 c-44 0 -45 0 -45 33 0 43 5 47 52 47 38 0 38 0 38 -40z
m155 0 c0 -34 -1 -35 -42 -38 -43 -3 -43 -3 -43 31 0 43 6 49 50 45 33 -3 35
-5 35 -38z m117 0 l4 -41 -41 3 c-38 3 -40 4 -43 41 l-3 37 39 0 c39 0 40 -1
44 -40z m-672 -89 c0 -5 -3 -23 -6 -40 -6 -29 -9 -31 -51 -31 -37 0 -44 3 -39
16 3 9 6 27 6 40 0 22 4 24 45 24 25 0 45 -4 45 -9z m120 -31 l0 -40 -43 0
-43 0 4 40 c4 39 5 40 43 40 39 0 39 0 39 -40z m153 33 c3 -5 2 -23 0 -40 -5
-31 -7 -33 -49 -33 -47 0 -47 1 -38 49 6 28 10 31 45 31 21 0 40 -3 42 -7z
m125 -35 l3 -38 -45 0 -46 0 0 41 0 40 43 -3 c41 -3 42 -4 45 -40z m162 18 c0
-45 -10 -56 -51 -56 -39 0 -39 0 -39 40 l0 40 45 0 c41 0 45 -2 45 -24z m118
-21 l3 -40 -41 0 -40 0 0 43 0 43 38 -3 c35 -3 37 -5 40 -43z m-418 -155 l0
-60 -103 0 c-57 0 -106 2 -108 4 -2 2 -2 29 -1 60 l4 56 104 0 104 0 0 -60z
m290 0 l0 -60 -115 0 -115 0 0 44 c0 77 -1 76 121 76 l109 0 0 -60z"/>
<path d="M3754 2604 c-14 -20 -15 -30 -5 -50 14 -31 41 -28 58 5 23 48 -25 89
-53 45z"/>
<path d="M3073 2613 c-19 -7 -16 -60 3 -67 26 -10 34 -7 46 19 17 38 -10 64
-49 48z"/>
<path d="M3367 2606 c-48 -17 -71 -38 -92 -82 -14 -30 -20 -34 -56 -34 -81 0
-139 -57 -139 -137 0 -41 -1 -43 -30 -43 -25 0 -30 -4 -30 -25 l0 -25 425 0
425 0 0 24 c0 19 -6 25 -27 28 -23 2 -29 9 -35 42 -16 75 -82 136 -147 136
-22 0 -34 7 -47 28 -34 56 -114 101 -179 101 -16 0 -47 -6 -68 -13z m139 -65
c46 -21 74 -54 74 -88 0 -21 4 -23 58 -23 48 0 62 -4 79 -22 23 -26 43 -61 43
-77 0 -8 -99 -11 -315 -11 -306 0 -315 1 -315 20 0 62 66 110 122 91 36 -13
41 -9 57 40 26 81 108 110 197 70z"/>
<path d="M3020 2140 l0 -30 419 0 c390 0 419 1 423 18 11 42 16 42 -423 42
l-419 0 0 -30z"/>
<path d="M1479 1996 c-8 -17 -22 -26 -48 -30 -67 -11 -141 -94 -141 -159 0
-21 -6 -26 -27 -29 -18 -2 -29 -10 -31 -22 -6 -30 12 -39 67 -31 41 6 51 11
51 26 0 11 -6 22 -14 25 -31 12 31 104 90 135 37 18 38 18 51 -1 18 -26 43
-26 50 0 6 24 15 25 56 4 46 -23 66 -44 88 -86 16 -31 17 -41 7 -57 -10 -16
-9 -25 1 -44 11 -21 10 -29 -4 -58 -25 -50 -44 -68 -93 -89 -39 -17 -45 -18
-59 -5 -18 19 -21 19 -39 0 -14 -13 -20 -13 -53 5 -44 22 -88 70 -97 106 -4
17 -13 24 -30 24 -21 0 -24 -3 -18 -27 19 -83 80 -145 154 -158 33 -6 39 -11
42 -33 4 -36 40 -37 48 -2 5 19 15 26 49 33 55 11 124 77 142 137 12 38 11 44
-6 56 -17 13 -14 14 29 14 43 0 47 2 44 23 -2 16 -11 23 -30 25 -22 3 -28 9
-28 28 0 69 -77 152 -150 161 -32 5 -44 12 -51 29 -11 31 -36 31 -50 0z"/>
<path d="M1118 1999 c-13 -7 -18 -22 -18 -50 0 -32 4 -41 25 -51 31 -14 70 4
78 34 8 28 -12 65 -37 72 -27 7 -28 7 -48 -5z m50 -52 c2 -10 -3 -17 -12 -17
-18 0 -29 16 -21 31 9 14 29 6 33 -14z"/>
<path d="M3317 2003 c-4 -3 -7 -21 -7 -40 0 -28 3 -33 24 -33 19 0 26 7 31 30
4 16 4 34 0 40 -7 11 -38 14 -48 3z"/>
<path d="M3655 1980 c-36 -40 11 -104 60 -82 32 15 40 47 21 77 -20 30 -56 32
-81 5z"/>
<path d="M3481 1924 c-16 -21 -18 -30 -10 -40 16 -20 32 -17 57 9 22 23 22 24
4 40 -24 22 -27 22 -51 -9z"/>
<path d="M3143 1925 c-6 -17 23 -55 42 -55 7 0 18 7 25 15 10 13 10 19 -5 35
-22 24 -53 26 -62 5z"/>
<path d="M3252 1874 c-111 -88 -71 -264 64 -280 50 -7 120 28 151 75 34 51 32
129 -4 166 -71 71 -151 86 -211 39z m145 -48 l27 -24 -19 -36 c-11 -20 -23
-36 -27 -36 -5 0 -8 -6 -8 -13 0 -19 -49 -67 -69 -67 -10 0 -30 9 -45 21 -21
17 -26 29 -26 66 0 38 5 50 34 79 42 42 91 46 133 10z"/>
<path d="M1446 1804 c-55 -56 -17 -154 60 -154 38 0 94 47 94 78 0 33 -21 82
-40 92 -35 19 -86 12 -114 -16z m104 -43 c5 -11 10 -27 10 -35 0 -21 -37 -39
-66 -32 -19 5 -24 13 -24 40 0 19 6 37 13 39 27 12 57 6 67 -12z"/>
<path d="M3077 1763 c-4 -3 -7 -15 -7 -25 0 -14 8 -18 40 -18 36 0 40 3 40 25
0 22 -4 25 -33 25 -19 0 -37 -3 -40 -7z"/>
<path d="M3527 1763 c-4 -3 -7 -15 -7 -25 0 -17 7 -19 48 -16 40 3 47 6 50 26
3 20 -1 22 -41 22 -24 0 -47 -3 -50 -7z"/>
<path d="M3464 1615 c-9 -21 23 -65 46 -65 10 0 22 9 25 21 13 40 -57 83 -71
44z"/>
<path d="M3156 1601 c-20 -22 -12 -51 15 -51 21 0 54 44 44 60 -10 16 -40 12
-59 -9z"/>
<path d="M3312 1518 c2 -35 7 -43 23 -43 16 0 21 8 23 43 3 39 2 42 -23 42
-25 0 -26 -3 -23 -42z"/>
<path d="M1835 1435 c-105 -38 -135 -175 -57 -257 78 -83 233 -45 263 64 35
131 -80 239 -206 193z m98 -56 c40 -22 58 -73 28 -84 -8 -3 -17 -2 -19 3 -1 5
-17 8 -35 6 l-32 -4 25 20 25 21 -30 -3 c-26 -3 -31 -9 -39 -40 -11 -44 -10
-47 31 -50 18 -1 29 -6 27 -10 -3 -4 -7 -18 -9 -29 -5 -24 -15 -39 -15 -22 0
6 -10 8 -23 6 -38 -7 -77 40 -77 94 0 79 75 127 143 92z"/>
<path d="M2890 1432 c-103 -56 -116 -193 -26 -266 32 -27 46 -31 95 -31 48 0
64 5 95 29 118 90 67 270 -81 283 -35 3 -58 -1 -83 -15z m47 -134 c-3 -51 -8
-94 -11 -95 -32 -14 -66 31 -66 85 0 35 6 49 29 73 48 47 53 40 48 -63z m92
58 c25 -27 22 -66 -6 -66 -8 0 -13 -5 -11 -11 2 -6 7 -10 12 -9 9 2 26 -19 26
-34 0 -4 -7 -6 -15 -2 -10 3 -15 -1 -15 -13 0 -10 -7 -21 -15 -25 -11 -4 -15
2 -15 25 0 17 4 28 9 25 4 -3 5 13 0 37 -11 55 -11 97 -1 97 5 0 19 -11 31
-24z"/>
<path d="M2395 1411 c-11 -11 -40 -41 -65 -68 -25 -26 -64 -66 -87 -89 -41
-39 -56 -74 -33 -74 6 0 20 -21 31 -47 32 -74 54 -93 111 -93 40 0 48 -3 48
-18 0 -19 18 -42 33 -42 4 0 13 14 18 30 8 22 17 30 34 30 49 0 74 19 104 78
17 33 37 62 46 66 13 5 14 10 4 27 -16 30 -61 68 -81 69 -17 0 -30 27 -33 65
-1 12 -15 27 -35 37 -19 10 -38 24 -42 33 -12 20 -29 19 -53 -4z m0 -91 c4
-13 15 -20 31 -20 17 0 24 5 24 20 0 30 34 25 64 -11 29 -35 34 -64 10 -73
-24 -9 -14 -50 14 -54 28 -4 28 -9 -3 -55 -28 -40 -58 -48 -95 -25 -15 10 -22
10 -32 0 -6 -6 -27 -12 -44 -12 -24 0 -38 7 -52 28 -31 45 -34 62 -11 62 25 0
36 27 20 52 -13 20 -11 25 27 76 28 37 38 40 47 12z"/>
<path d="M3256 1384 c-19 -18 -19 -20 -6 -45 12 -21 40 -25 58 -7 18 18 14 46
-7 58 -25 13 -27 13 -45 -6z"/>
<path d="M1537 1383 c-12 -11 -7 -50 7 -62 11 -9 20 -10 35 -1 22 11 26 26 15
54 -6 16 -45 22 -57 9z"/>
</g>
</svg>
